# xmcd CD database file
#
# Track frame offsets:
#	150
#	6484
#	18345
#	21924
#	43954
#	46029
#	50561
#	65670
#	68093
#	73440
#	84429
#	90616
#	96440
#	106857
#	115569
#	130602
#	154907
#	178372
#	196210
#
# Disc length: 3033 seconds
#
# Revision: 4
# Processed by: cddbd v1.5.2PL0 Copyright (c) Steve Scherf et al.
# Submitted via: CDex 1.51
#
DISCID=090bd713
DTITLE=Modeste Moussorgski - Tableaux d'une Exposition - Version originale pour piano, 1874
DYEAR=1900
DGENRE=Classique
TTITLE0=Tableaux, promenade . . . . . . { Israela Margalit, piano }
TTITLE1=Gnomus
TTITLE2=Promenade
TTITLE3=Il vecchio castello
TTITLE4=Promenade
TTITLE5=Tuillerie
TTITLE6=Bydlo
TTITLE7=Promenade
TTITLE8=Ballet des poussins dans leur coque
TTITLE9=Promenade
TTITLE10=Samuel Goldenberg et Schuyle 
TTITLE11=Marché de Limoges
TTITLE12=Catacombes
TTITLE13=Cum mortis in langua mortua
TTITLE14=Cabane sur des pattes de poules
TTITLE15=La grande porte de Kiev
TTITLE16=La Khovanchtchina - Introduction
TTITLE17=La Khovanchtchina - Entracte
TTITLE18=La Khovanchtchina - Danses persanes
EXTD=
EXTT0=
EXTT1=
EXTT2=
EXTT3=
EXTT4=
EXTT5=
EXTT6=
EXTT7=
EXTT8=
EXTT9=
EXTT10=
EXTT11=
EXTT12=
EXTT13=
EXTT14=
EXTT15=
EXTT16=
EXTT17=
EXTT18=
PLAYORDER=
